<?xml version="1.0" standalone="no"?>
<!DOCTYPE svg PUBLIC "-//W3C//DTD SVG 20010904//EN"
 "http://www.w3.org/TR/2001/REC-SVG-20010904/DTD/svg10.dtd">
<svg version="1.0" xmlns="http://www.w3.org/2000/svg"
 width="192.000000pt" height="192.000000pt" viewBox="0 0 192.000000 192.000000"
 preserveAspectRatio="xMidYMid meet">

<g transform="translate(0.000000,192.000000) scale(0.100000,-0.100000)"
fill="#000000" stroke="none">
<path d="M0 960 l0 -960 960 0 960 0 0 960 0 960 -960 0 -960 0 0 -960z m1515
757 c107 -21 159 -55 219 -145 l29 -43 -69 -64 -68 -64 -31 27 c-16 15 -32 31
-36 35 -3 4 -30 14 -59 22 -64 17 -136 5 -172 -28 -28 -26 -58 -100 -58 -144
0 -39 23 -93 50 -118 22 -20 83 -45 112 -45 10 0 59 -14 110 -31 133 -44 189
-90 241 -199 30 -63 31 -69 32 -210 0 -145 -2 -158 -43 -250 -52 -119 -155
-190 -278 -193 l-69 -2 -3 104 c-3 116 3 131 55 131 40 0 99 28 130 62 53 57
50 213 -5 266 -47 47 -55 50 -154 71 -215 45 -313 139 -339 323 -24 171 15
321 104 410 48 46 86 67 157 83 72 17 65 17 145 2z m-829 -64 c85 -34 149 -89
198 -172 80 -137 116 -292 116 -501 0 -105 -16 -264 -30 -295 -4 -11 -16 -42
-26 -70 -10 -27 -21 -54 -25 -60 -4 -5 -20 -35 -37 -66 -39 -72 -91 -123 -167
-162 l-60 -31 -220 -1 -220 0 -3 113 -3 114 77 74 c43 41 81 74 85 74 4 0 9
-26 11 -57 l3 -58 103 -3 c120 -3 164 7 214 48 57 47 93 121 117 239 26 129
26 163 1 287 -31 154 -78 232 -165 274 -37 18 -58 20 -156 18 l-114 -3 -3 -67
c-2 -38 -7 -68 -12 -68 -8 0 -65 44 -85 66 -5 6 -25 21 -42 33 l-33 22 0 133
c0 73 3 136 7 139 3 4 96 7 205 7 191 0 200 -1 264 -27z m-443 -485 c18 -12
39 -28 47 -35 77 -68 101 -88 137 -114 24 -16 43 -36 43 -43 0 -7 -19 -28 -42
-47 -23 -19 -58 -51 -78 -71 -20 -21 -40 -38 -44 -38 -4 0 -24 -16 -44 -35
-20 -19 -40 -35 -44 -35 -5 0 -8 42 -8 93 0 50 -3 149 -7 220 -3 70 -3 127 1
127 5 0 22 -10 39 -22z m1010 -617 c42 -46 51 -86 45 -182 -5 -60 -10 -75 -34
-100 -61 -64 -108 -69 -159 -16 -32 32 -43 57 -51 114 -16 121 40 222 122 223
36 0 47 -5 77 -39z"/>
</g>
</svg>
